<?xml version="1.0" encoding="utf-8"?>
<!-- Generator: Adobe Illustrator 23.0.2, SVG Export Plug-In . SVG Version: 6.00 Build 0)  -->
<svg version="1.1" id="Layer_1" xmlns="http://www.w3.org/2000/svg" xmlns:xlink="http://www.w3.org/1999/xlink" x="0px" y="0px"
	 viewBox="0 0 167.5 169.5" style="enable-background:new 0 0 167.5 169.5;" xml:space="preserve">
<path d="M7.9,169.5h112.3c4.4,0,7.9-3.6,7.9-7.9V97.2l7.2-10.5l1.4,0.9c1.2,0.8,2.9,0.5,3.7-0.7l20.1-29.2c2,2.7,2.2,6.6,0.2,9.5
	l-21.5,31.2c-0.8,1.2-0.5,2.9,0.7,3.7c1.2,0.8,2.9,0.5,3.7-0.7l21.5-31.2c3.7-5.4,2.9-12.6-1.5-17.1c4.5-7.3,2.5-16.9-4.6-21.9
	c-7.4-5.1-17.5-3.2-22.6,4.2l-8.2,12V7.9c0-4.4-3.6-7.9-7.9-7.9H33.2c-0.5,0-1.3,0.2-1.9,0.8c0,0,0,0,0,0L0.8,31.3c0,0,0,0,0,0
	c0,0,0,0,0,0.1C0.2,31.9,0,32.7,0,33.2v128.4C0,166,3.6,169.5,7.9,169.5z M123.4,94.9C123.4,94.9,123.4,94.9,123.4,94.9
	c-3.1,4.6,11.3-16.4-30.5,44.2c-1.9,2.7-6.2,3.8-9.2,1.7c0,0,0,0,0,0c0,0,0,0,0,0c-3.1-2.1-3.7-6.3-1.7-9.2
	c52.2-75.8,34.2-49.7,38.1-55.3l10.9,7.5L123.4,94.9z M140.8,38.6c3.4-5,10.2-6.2,15.2-2.8c5,3.4,6.2,10.2,2.8,15.2
	c-13.5,19.7-13.5,19.6-21.2,30.8c-41.8-28.7,8.3,5.7-18-12.4C148.7,27.2,138.6,41.8,140.8,38.6z M122.9,7.9v47.3l-9.2,13.3
	c-0.8,1.2-0.5,2.9,0.7,3.7l1.4,0.9L98.5,98.3H20.6c-1.5,0-2.6,1.2-2.6,2.6c0,1.5,1.2,2.6,2.6,2.6h74.2l-6.5,9.4l-1.1,1.6H20.6
	c-1.5,0-2.6,1.2-2.6,2.6c0,1.5,1.2,2.6,2.6,2.6h63.1l-6,8.7c-3,4.3-2.8,10.6,1.1,14.8l-3.3,4.8c-0.8,1.2-0.5,2.9,0.7,3.7
	c1.2,0.8,2.9,0.5,3.7-0.7l3.3-4.8c5.5,2.2,11.2,0.1,14.2-4.3c2.6-3.8-9.5,13.8,25.6-37.2v56.7c0,1.5-1.2,2.6-2.6,2.6H7.9
	c-1.5,0-2.6-1.2-2.6-2.6V35.9h18.6c6.6,0,11.9-5.4,11.9-11.9v0V5.3h84.4C121.7,5.3,122.9,6.5,122.9,7.9z M30.5,9v14.9
	c0,3.7-3,6.6-6.7,6.6H9.1L30.5,9z"/>
<path d="M49.6,22.5h59.5c1.5,0,2.6-1.2,2.6-2.6c0-1.5-1.2-2.6-2.6-2.6H49.6c-1.5,0-2.6,1.2-2.6,2.6C47,21.3,48.1,22.5,49.6,22.5z"/>
<path d="M49.6,38.7h59.5c1.5,0,2.6-1.2,2.6-2.6s-1.2-2.6-2.6-2.6H49.6c-1.5,0-2.6,1.2-2.6,2.6S48.1,38.7,49.6,38.7z"/>
<path d="M68.3,49.7h-43c-2.9,0-5.3,2.4-5.3,5.3v27.1c0,2.9,2.4,5.3,5.3,5.3h43c2.9,0,5.3-2.4,5.3-5.3V55
	C73.6,52,71.2,49.7,68.3,49.7z M25.2,82.1V55h43l0,27.1H25.2z"/>
<path d="M19.4,144.4c1.3,0.7,2.9,0.2,3.6-1.1c0.9-1.7,2.1-3.4,3-4.1c0.2,0.5,0.5,1.5,0.8,3.3c1.2,8.5,3,12.1,6.2,12.1c0,0,0,0,0,0
	c3.2,0,5-3.7,6-12.1c0.6-4.5,1.5-7.8,2.3-9.8c0.4,1.6,0.9,4.2,1.2,8.7c0.7,8.4,2.2,12,5.4,12.6c3.7,0.7,6.2-3.9,8-7.8
	c0.3-0.7,1-1.1,1.7-1.1h3.3c1.5,0,2.6-1.2,2.6-2.6c0-1.5-1.2-2.6-2.6-2.6h-3.3c-2.8,0-5.4,1.7-6.6,4.2c-0.9,2-1.7,3.3-2.2,4
	c-0.3-1.1-0.8-3.1-1.1-6.9c-0.9-10.9-2.6-15.2-6.2-15.3c-5.1,0-7.1,10.1-7.8,16.2c-0.3,2.1-0.5,3.6-0.8,4.8
	c-0.3-1.2-0.6-2.7-0.9-4.8c-0.3-2-1-7.4-5-8.1c-4.1-0.7-7.5,4.8-8.7,7.3C17.6,142.1,18.1,143.7,19.4,144.4z"/>
</svg>
