<?xml version="1.0" encoding="utf-8"?>
<!-- Generator: Adobe Illustrator 23.0.2, SVG Export Plug-In . SVG Version: 6.00 Build 0)  -->
<svg version="1.1" id="Remove" xmlns="http://www.w3.org/2000/svg" xmlns:xlink="http://www.w3.org/1999/xlink" x="0px" y="0px"
	 viewBox="0 0 177.8 214.8" style="enable-background:new 0 0 177.8 214.8;" xml:space="preserve">
<g>
	<path d="M88.9,104.2c-28.7,0-52.1-23.4-52.1-52.1S60.2,0,88.9,0S141,23.4,141,52.1S117.6,104.2,88.9,104.2z M88.9,13.2
		C67.4,13.2,50,30.6,50,52.1C50,73.6,67.4,91,88.9,91c21.5,0,38.9-17.5,38.9-38.9C127.8,30.6,110.4,13.2,88.9,13.2z"/>
	<path d="M171.2,214.8H6.6c-3.6,0-6.6-3-6.6-6.6c0-49,39.9-88.9,88.9-88.9c49,0,88.9,39.9,88.9,88.9
		C177.8,211.8,174.9,214.8,171.2,214.8z M13.5,201.6h150.9c-3.4-38.7-35.9-69.1-75.4-69.1C49.4,132.5,16.8,162.9,13.5,201.6z"/>
</g>
</svg>
