<?xml version="1.0" encoding="utf-8"?>
<!-- Generator: Adobe Illustrator 22.0.1, SVG Export Plug-In . SVG Version: 6.00 Build 0)  -->
<svg version="1.1" id="Layer_1" xmlns="http://www.w3.org/2000/svg" xmlns:xlink="http://www.w3.org/1999/xlink" x="0px" y="0px"
	 viewBox="0 0 100.7 99" style="enable-background:new 0 0 100.7 99;" xml:space="preserve">
<style type="text/css">
	.st0{fill:#FFFFFF;}
</style>
<g>
	<path class="st0" d="M76,80.8c-0.9-4.7-1-11.6,0.9-16.4l2-5c0.2-0.5,0-1.1-0.6-1.3c-0.5-0.2-1.1,0-1.3,0.6l-2,5
		c-2.2,5.6-2,13-1.1,17.6c0.7,3.7,3.5,8.4,5.1,10.8H43.2c0-0.8-0.4-2-1.4-3.6c-1.6-2.4-3.9-5.5-4.7-6.6c4.9-2,9.6-4,11.3-4.9
		c1.9-1,3.1-2.1,3.5-3.3c0.4-1.1,0-1.9-0.1-2c-0.2-0.5-0.9-0.7-1.4-0.5c-0.5,0.2-0.7,0.8-0.5,1.3c0.2,0.4-0.2,1.5-2.5,2.7
		c-4.3,2.2-18,8-23.7,8.9c-2.4,0.4-4.2,0-5.3-1.2c-0.8-0.9-1-2.2-0.6-3.5c1-3,1.2-4.6-0.2-6c-0.5-0.5-1.1-0.7-1.8-1
		c0.4-0.1,0.7-0.3,0.9-0.8c0.2-0.8-0.4-1.5-1.1-2.2c-0.9-0.9-1.9-1.5-2.5-1.8c-0.1,0-0.1-0.1-0.2-0.1c1-1.2,3.3-4.4,1.7-6.1
		c-0.5-0.5-1.4-0.9-2.5-1.3c-1-0.4-3.2-1.3-3.2-2c0.1-1,3.6-5.5,5.5-7.9c1.8-2.4,3-3.8,3.4-4.6c1.3-2.5,1-4-1.2-6.2
		c-2-2-2.4-2.4-0.9-4.7c0.5-0.8,0.9-2.1,1.3-4C18.8,24.1,21.8,12,36.2,9c4.5-0.9,6.1-1,6.5-1c0.1,0,0.1,0,0.1,0
		c0.5,0.1,1.1-0.2,1.2-0.7c0.1-0.5-0.2-1.1-0.7-1.2c-0.4-0.1-1.9-0.2-7.4,1c-15.6,3.3-19,16.6-20.6,23.1c-0.4,1.5-0.7,2.9-1,3.4
		c-2.5,3.7-0.9,5.3,1.1,7.3c1.7,1.7,1.6,2.3,0.8,3.8c-0.3,0.7-1.8,2.5-3.2,4.3C8.7,54.2,7,56.6,7,58c0,2,2.4,3,4.5,3.8
		c0.7,0.3,1.6,0.7,1.8,0.8c0.2,0.5-0.9,2.6-2,3.6c-0.4,0.4-0.6,0.9-0.5,1.3c0.1,0.8,0.7,1.1,1.4,1.5c0.6,0.3,1.3,0.8,2.1,1.5
		c-0.3,0.1-0.7,0.3-1,0.6c-0.6,0.6-0.5,1.1-0.5,1.4c0.2,0.8,1.1,1.1,2,1.4c0.5,0.2,1.2,0.4,1.5,0.6c0.5,0.5,0.8,1-0.2,4
		c-0.6,1.9-0.2,3.9,1,5.4c0.7,0.8,2.3,2.1,5.2,2.1c0.6,0,1.2-0.1,1.9-0.2c2.7-0.4,6.8-1.8,11-3.4c0,0,0,0,0,0c0,0,3,4,5,7
		c1.3,1.9,1.1,2.7,1,2.8c-0.3,0.4-0.3,1,0.1,1.3c0.2,0.2,0.5,0.3,0.7,0.3c0.2,0,0.3-0.1,0.5-0.2c0.1,0.1,0.3,0.2,0.5,0.2h38h1.9
		l-1.1-1.6C81.8,92.4,76.9,85.5,76,80.8z"/>
	<path class="st0" d="M27.4,19.2c-5.2,4.2-6.3,11.3-6.4,11.6c-0.1,0.5,0.3,1.1,0.8,1.1c0,0,0.1,0,0.1,0c0.5,0,0.9-0.4,1-0.9
		c0-0.1,1-6.7,5.6-10.4C33.2,17.1,36,17,36,17c0.6,0,1-0.4,1-1s-0.4-1-1-1C35.9,15,32.6,15,27.4,19.2z"/>
	<path class="st0" d="M19,36v2c0,0.6,0.4,1,1,1s1-0.4,1-1v-2c0-0.6-0.4-1-1-1S19,35.4,19,36z"/>
	<path class="st0" d="M62,8c0,0,4.6,0,7.3,2.7l3,3c0.2,0.2,0.5,0.3,0.7,0.3s0.5-0.1,0.7-0.3c0.4-0.4,0.4-1,0-1.4l-3-3
		C67.5,6,62.2,6,62,6c-0.6,0-1,0.4-1,1C61,7.5,61.4,8,62,8z"/>
	<path class="st0" d="M83.1,48.6c-0.2,0.5,0,1.1,0.4,1.3C83.7,50,83.8,50,84,50c0.4,0,0.7-0.2,0.9-0.6c0-0.1,1.1-2.2,3.1-9.2
		c2.1-7.4-1-11.7-1.2-11.9c-0.3-0.4-1-0.5-1.4-0.2c-0.4,0.3-0.5,1-0.2,1.4c0.1,0.1,2.7,3.7,0.8,10.1C84.1,46.5,83.1,48.5,83.1,48.6z
		"/>
	<path class="st0" d="M89.5,54c-1.6,0-3.1,0.5-4.3,1.3L72.4,43.6c2.2-2.4,3.6-5.6,3.6-9.1c0-2.9-0.9-5.6-2.5-7.8
		c0.7-0.8,2.9-2.4,5-3.8c1.7,1.9,4.2,3.1,7,3.1c5.2,0,9.5-4.3,9.5-9.5S90.7,7,85.5,7S76,11.3,76,16.5c0,1.7,0.5,3.4,1.3,4.8
		c-2.7,1.8-4.2,3.1-5.1,3.9c-2.5-2.6-5.9-4.2-9.7-4.2c-1.3,0-2.5,0.2-3.6,0.5l-1-2.5c2.4-1.4,4.1-4,4.1-7c0-4.4-3.6-8-8-8
		s-8,3.6-8,8s3.6,8,8,8c0.7,0,1.4-0.1,2.1-0.3l0.9,2.5c-4.7,2.1-8,6.8-8,12.3c0,1.7,0.3,3.4,0.9,4.9c-3.2,1.6-5.1,2.6-6.2,3.4
		C42.1,39.9,39,38,35.5,38c-5.2,0-9.5,4.3-9.5,9.5s4.3,9.5,9.5,9.5s9.5-4.3,9.5-9.5c0-1-0.2-2-0.4-2.9c1.2-0.7,3.8-2.2,6.3-3.4
		c1.7,2.9,4.5,5.2,7.8,6.2L56.6,56c0,0-0.1,0-0.1,0c-3,0-5.5,2.5-5.5,5.5s2.5,5.5,5.5,5.5s5.5-2.5,5.5-5.5c0-2.3-1.4-4.3-3.4-5.1
		l1.9-8.6c0.6,0.1,1.3,0.2,2,0.2c3.2,0,6.1-1.1,8.5-3l12.8,11.7c-1.1,1.3-1.7,3-1.7,4.8c0,4.1,3.4,7.5,7.5,7.5s7.5-3.4,7.5-7.5
		S93.6,54,89.5,54z M85.5,9c4.1,0,7.5,3.4,7.5,7.5S89.6,24,85.5,24S78,20.6,78,16.5S81.4,9,85.5,9z M48,12c0-3.3,2.7-6,6-6
		s6,2.7,6,6s-2.7,6-6,6S48,15.3,48,12z M35.5,55c-4.1,0-7.5-3.4-7.5-7.5s3.4-7.5,7.5-7.5c2.9,0,5.4,1.7,6.7,4.1
		c-0.1,0.3,0,0.5,0,0.7c0.1,0.2,0.3,0.4,0.5,0.5c0.2,0.7,0.3,1.4,0.3,2.1C43,51.6,39.6,55,35.5,55z M60,61.5c0,1.9-1.6,3.5-3.5,3.5
		S53,63.4,53,61.5c0-1.9,1.6-3.5,3.5-3.5c0.1,0.2,0.4,0.4,0.6,0.5c0.1,0,0.1,0,0.2,0c0.2,0,0.4-0.1,0.6-0.2
		C59.1,58.9,60,60.1,60,61.5z M51,34.5C51,28.2,56.2,23,62.5,23c3.6,0,6.9,1.7,9,4.3c0,0.1,0.1,0.1,0.1,0.2c1.5,1.9,2.4,4.4,2.4,7
		C74,40.8,68.8,46,62.5,46S51,40.8,51,34.5z M89.5,67c-3,0-5.5-2.5-5.5-5.5s2.5-5.5,5.5-5.5s5.5,2.5,5.5,5.5S92.5,67,89.5,67z"/>
	<path class="st0" d="M63,27c-0.2,0-1.3,0.1-4.3,1.1C55,29.3,55,34.8,55,35c0,0.6,0.4,1,1,1s1-0.4,1-1c0,0,0.1-4.3,2.3-5.1
		C62,29,63,29,63,29c0.6,0,1-0.4,1-1S63.6,27,63,27z"/>
</g>
</svg>
