<svg id="Layer_1" data-name="Layer 1" xmlns="http://www.w3.org/2000/svg" viewBox="0 0 198.17 62.21"><defs><style>.cls-1{fill:#460e87;}</style></defs><title>Sirius_LOGO_red</title><path class="cls-1" d="M13.3,30.14a3.12,3.12,0,0,0,0-6.24,3.12,3.12,0,0,0,0,6.24ZM16,36.76A2.71,2.71,0,0,0,13.3,34a2.74,2.74,0,0,0,0,5.47A2.71,2.71,0,0,0,16,36.76Zm-9.1,6.61a2.74,2.74,0,0,0,0,5.47,2.74,2.74,0,0,0,0-5.47ZM6.44,14.31A3.42,3.42,0,0,0,3,17.83a3.42,3.42,0,0,0,3.4,3.51,3.52,3.52,0,0,0,0-7ZM16.7,54.12a2.34,2.34,0,0,0,0,4.68,2.34,2.34,0,0,0,0-4.68Zm9.36-6a2,2,0,0,0,0,3.9,2,2,0,0,0,0-3.9ZM6.08,32A3.09,3.09,0,0,0,3,28.9a3.13,3.13,0,0,0,0,6.25A3.09,3.09,0,0,0,6.08,32ZM26.44,38a2.35,2.35,0,0,0,0,4.69,2.35,2.35,0,0,0,0-4.69Zm-8.19,4.88a2.34,2.34,0,0,0,0,4.68,2.34,2.34,0,0,0,0-4.68Zm3.54-13.58a2.74,2.74,0,0,0,0,5.47,2.74,2.74,0,0,0,0-5.47Zm-4.1-14a3.42,3.42,0,0,0-3.4,3.52,3.42,3.42,0,0,0,3.4,3.51,3.52,3.52,0,0,0,0-7Zm26.6.73a2.74,2.74,0,0,0,0,5.47,2.74,2.74,0,0,0,0-5.47Zm.15-5.32a3.13,3.13,0,0,0,0-6.25,3,3,0,0,0-3,3.13A3,3,0,0,0,44.44,10.69ZM35.66,21a2.74,2.74,0,0,0,0,5.47,2.74,2.74,0,0,0,0-5.47Zm-3-6.92a3,3,0,0,0,3,3.12,3.12,3.12,0,0,0,0-6.24A3,3,0,0,0,32.66,14.05Zm-16-2.19a4.3,4.3,0,0,0,0-8.59,4.19,4.19,0,0,0-4.16,4.3A4.18,4.18,0,0,0,16.69,11.86ZM30.89,7a3.48,3.48,0,0,0,3.45-3.51A3.49,3.49,0,0,0,30.89,0a3.43,3.43,0,0,0-3.4,3.52A3.42,3.42,0,0,0,30.89,7ZM26.35,20.58a3.13,3.13,0,0,0,0,6.25,3.13,3.13,0,0,0,0-6.25Zm-.26-3a3.51,3.51,0,0,0,0-7,3.42,3.42,0,0,0-3.4,3.52A3.42,3.42,0,0,0,26.09,17.56ZM30.9,58.31a2,2,0,0,0,0,3.9,2,2,0,0,0,0-3.9ZM48.33,34.8a2,2,0,0,0,0,3.91,2,2,0,0,0,0-3.91Zm-3.88,20a1.57,1.57,0,0,0,0,3.13,1.57,1.57,0,0,0,0-3.13Zm10.7-34.22a2.74,2.74,0,0,0,0-5.47,2.74,2.74,0,0,0,0,5.47Zm-.58,23.65a2,2,0,0,0,0,3.9,2,2,0,0,0,0-3.9Zm3.6-14.53a2.35,2.35,0,0,0,0,4.69,2.35,2.35,0,0,0,0-4.69Zm-9.75-5.05a2.34,2.34,0,0,0,0,4.68,2.34,2.34,0,0,0,0-4.68ZM35.69,48.53a1.56,1.56,0,0,0,0,3.12,1.56,1.56,0,0,0,0-3.12ZM30.9,29.25a2.74,2.74,0,0,0,0,5.47,2.74,2.74,0,0,0,0-5.47ZM45.18,45.17a1.55,1.55,0,0,0-1.53-1.56,1.56,1.56,0,0,0,0,3.12A1.55,1.55,0,0,0,45.18,45.17Zm-9.52-6.92a2,2,0,0,0,0,3.9,2,2,0,0,0,0-3.9Zm4.65-8.61a2.34,2.34,0,0,0,0,4.68,2.34,2.34,0,0,0,0-4.68Zm130.06,5.77-5.49-13.5h-4.15l7.58,18.39-.11.26c-.9,2.49-2.27,3.71-4.8,3.56v3.75c4,.26,7.11-2.12,8.81-6.83l6.93-19.13H175Zm24.45-1.26A5.27,5.27,0,0,1,190,37a5.58,5.58,0,0,1-5.6-5.82,5.59,5.59,0,0,1,5.6-5.82,5,5,0,0,1,4.72,2.86l3.36-2a8.88,8.88,0,0,0-8-4.78,9.44,9.44,0,0,0-9.53,9.75,9.46,9.46,0,0,0,9.53,9.75,9,9,0,0,0,8.12-4.82Zm-49-.17V21.91H142V40.45h3.3L153.82,29V40.45h3.83V21.91h-3ZM84.94,18.48a8,8,0,0,1,7.25,4.19l3.61-2.15a12.37,12.37,0,0,0-10.86-6.19c-7.69,0-13.22,5.93-13.22,13.46s5.53,13.46,13.22,13.46A12.33,12.33,0,0,0,95.8,35L92.19,32.9a8,8,0,0,1-7.25,4.19c-5.46,0-9.07-4-9.07-9.3S79.48,18.48,84.94,18.48ZM103.19,34V21.91H99.36V40.45h3.3L111.15,29V40.45H115V21.91h-3Zm26.42-12.55a7.36,7.36,0,0,0-6.32,3.15L122,21.91h-2.64v26h3.9v-10a7.4,7.4,0,0,0,6.32,3.11c4.91,0,9-4.22,9-9.75S134.52,21.43,129.61,21.43ZM129,37.12a5.66,5.66,0,0,1-5.7-5.94,5.71,5.71,0,1,1,11.41,0A5.67,5.67,0,0,1,129,37.12Z"/></svg>
